<?xml version="1.0" encoding="UTF-8" standalone="no"?>
<!-- Created with Inkscape (http://www.inkscape.org/) -->
<svg xmlns:inkscape="http://www.inkscape.org/namespaces/inkscape" xmlns:rdf="http://www.w3.org/1999/02/22-rdf-syntax-ns#" xmlns="http://www.w3.org/2000/svg" xmlns:cc="http://creativecommons.org/ns#" xmlns:xlink="http://www.w3.org/1999/xlink" xmlns:dc="http://purl.org/dc/elements/1.1/" xmlns:svg="http://www.w3.org/2000/svg" xmlns:sodipodi="http://sodipodi.sourceforge.net/DTD/sodipodi-0.dtd" xmlns:ns1="http://sozi.baierouge.fr" id="svg5565" viewBox="0 0 630 630" version="1.1" inkscape:version="0.91 r13725">
  <defs id="defs5567">
    <linearGradient id="linearGradient4212" y2="201.81" gradientUnits="userSpaceOnUse" x2="298" gradientTransform="matrix(2.3293 0 0 2.3293 -296.37 326.96)" y1="124.54" x1="269.21">
      <stop id="stop3937-2" style="stop-color:#ff8700" offset="0"/>
      <stop id="stop3939-8" style="stop-color:#d33b00" offset="1"/>
    </linearGradient>
    <linearGradient id="linearGradient4214" y2="171.04" gradientUnits="userSpaceOnUse" x2="288.9" gradientTransform="matrix(2.3293 0 0 2.3293 -222.25 326.96)" y1="104.84" x1="288.9">
      <stop id="stop3052" style="stop-color:#eb6a0f" offset="0"/>
      <stop id="stop3054" style="stop-color:#a11700" offset="1"/>
    </linearGradient>
  </defs>
  <g id="layer1" transform="translate(-135 -422.36)">
    <g id="g4185" transform="matrix(1.7704 0 0 1.7704 -346.89 -477.18)">
      <use id="use4190" xlink:href="#g4183" transform="matrix(-1 0 0 1 898.51 .0000036604)" height="1052.3622" width="744.09448" y="0" x="0"/>
      <g id="g4183" transform="matrix(2.3282 -.073671 .073671 2.3282 -234.31 351.07)">
        <path id="path3007" style="color:#000000;fill:#000000" d="m251.4 127.06c-0.006-0.007-0.012-0.0133-0.0179-0.0199-0.0162-0.0181-0.0322-0.0363-0.0482-0.0547-0.0607-0.0696-0.12023-0.14026-0.17908-0.21145-0.21929-0.26527-0.42907-0.53832-0.63239-0.81602-0.71434-0.97567-1.3484-2.0094-1.9088-3.081v-0.00001c-1.7645-3.3745-2.7695-7.1613-2.7695-10.969 0-4.1469 1.3671-8.2056 3.338-11.854 0.68893-1.2754 1.456-2.5088 2.2994-3.6877v-0.000003c0.24624-0.34416 0.49898-0.68372 0.76102-1.016 0.0709-0.08984 0.14237-0.17916 0.21504-0.26754v-0.000003c0.0191-0.02324 0.0383-0.04641 0.0576-0.06946 0.007-0.0083 0.0141-0.01676 0.0211-0.025 3.2245-0.05292 6.4701 0.55379 9.4045 1.8916 2.2424 1.0223 4.2675 2.4568 6.2529 3.9167 2.1003 1.5444 3.6402 3.7398 4.885 6.0305l1.681 3.6922-11.869 6.8186c-2.9322 2.066-5.7386 4.311-8.3928 6.7236h-0.00001c-0.77823 0.70741-1.5435 1.4292-2.2887 2.1714h-0.00001c-0.20155 0.20071-0.40163 0.4029-0.59917 0.60757-0.0518 0.0537-0.10345 0.10753-0.15476 0.16169-0.0183 0.0193-0.0369 0.0389-0.055 0.0584l-0.00009 0.00009"/>
        <path id="path3009" style="color:#000000;fill:#e75c0b" d="m252.88 124.4c-0.005-0.006-0.0102-0.0113-0.0153-0.0169-0.0136-0.0152-0.0271-0.0305-0.0405-0.0459-0.0508-0.0583-0.10058-0.11737-0.14982-0.17695-0.18307-0.22153-0.35821-0.44955-0.52795-0.68146-0.59574-0.81396-1.1246-1.6763-1.5918-2.5702v-0.00001c-1.4708-2.8138-2.3085-5.9713-2.3085-9.1463 0-3.4578 1.1397-6.8422 2.7828-9.8847v-0.00001c0.57454-1.0639 1.2142-2.0927 1.9177-3.0761 0-0.000001 0-0.000002 0.00001-0.000003 0.20552-0.28732 0.41649-0.5708 0.6352-0.84821 0-0.000001 0.00001-0.000002 0.00001-0.000004v-0.000003c0.0592-0.07513 0.11904-0.14982 0.17979-0.22373 0.016-0.0195 0.0321-0.03894 0.0483-0.05828 0.006-0.0071 0.0119-0.01423 0.0179-0.02123 4.7443-0.07785 9.2366 2.0336 13.059 4.8445 1.7511 1.2876 3.0351 3.1177 4.073 5.0273 0.38368 0.70587 0.73271 1.4306 1.0452 2.1708 0.0924 0.21894 0.18167 0.43924 0.26619 0.66134 0.0231 0.0606 0.0458 0.1214 0.0679 0.18238 0.008 0.0221 0.0164 0.0452 0.0241 0.0674l-9.8997 5.6872c-2.4446 1.7225-4.7845 3.5942-6.9975 5.6056 0 0.00001 0 0.00001-0.00001 0.00001-0.64927 0.59012-1.2877 1.1923-1.9094 1.8114-0.16837 0.16765-0.33553 0.33655-0.50055 0.5075-0.0434 0.045-0.0866 0.0901-0.12963 0.13542-0.0154 0.0163-0.0312 0.0329-0.0465 0.0494l-0.00011 0.00011"/>
        <path id="path4177" style="color:#000000;fill:#ab2302" d="m257.01 121.2c-0.5826-0.89498-1.1454-1.8152-1.4844-2.8278-0.4952-1.479-0.59226-3.0615-0.59226-4.6212 0-1.6152 0.005-3.2746 0.57396-4.7861 0.47417-1.2589 1.4486-2.267 2.5314-3.0652 1.3755-0.0225 2.7751 0.12318 4.0456 0.65075 0.93647 0.38887 1.7663 0.98975 2.5833 1.5904 1.6886 1.2416 2.9248 3.0116 3.6832 4.9656l-5.5076 3.164-5.833 4.9294-0.00016 0.00016z"/>
      </g>
      <path id="path4008" style="color:#000000;fill:url(#linearGradient4212)" d="m524.8 717.34c13.306-12.132 38.34-13.658 41.177-16.177 2.7601-2.4509-2.6471-24.118-9.7061-41.766-7.059-17.647-15.883-34.118-47.648-58.825-24.889-19.358-49.564-18.236-58.959-18.236-10.571 0-34.07-1.122-58.959 18.236-31.765 24.706-42.872 40.282-47.616 58.687-4.7449 18.405-10.755 42.209-8.9046 44.091 2.3945 2.435 27.038 1.8571 40.344 13.989 10 9.1178 17.353 16.177 24.412 36.765 7.059 20.589 14.706 34.118 26.471 42.942 11.765 8.8237 22.353 11.765 44.119 8.8237 21.765-2.9412 37.271-1.3492 44.266 1.1765 5.3942 1.9478 15.95 11.091 17.942 9.559 2.0054-1.5427-3.7791-35.191-7.7943-46.619-2.5071-7.1357-12.716-22.227-19.957-28.035 7.089-12.578 13.035-17.52 20.814-24.613z"/>
      <path id="path3900" style="color:#000000;fill:#000000" d="m449.25 579.98s-22.077 0.57234-34.431 8.8078c-12.353 8.2355-27.033 18.768-35.065 41.71-8.0318 22.942-5.8442 35.987-5.8442 47.752 15.21 6.2945 31.114 19.389 36.323 28.971 4.084 7.5127 5.4908 13.948 9.6085 23.949 4.1177 10 17.937 9.9725 29.408 9.9725s25.29 0.0277 29.408-9.9725c4.1177-10 5.5245-16.436 9.6085-23.949 5.209-9.5824 21.113-22.677 36.323-28.971 0-11.765 2.1876-24.81-5.8442-47.752s-22.712-33.474-35.065-41.71c-12.353-8.2355-34.431-8.8078-34.431-8.8078z"/>
      <path id="path3855" style="color:#000000;fill:#ffffff" d="m379.52 675.27s26.772 13.252 35.007 27.958c4.1177 7.3531 7.2114 15.186 8.8237 20 4.1161 12.291 13.98 12.301 24.853 12.353-4.6871-8.8545-3.3342-15.019 1.0294-19.412l-42.354-38.53z"/>
      <path id="path3861" style="color:#000000;fill:#ffffff" d="m518.95 675.27s-26.772 13.252-35.007 27.958c-4.1177 7.3531-7.2114 15.186-8.8237 20-4.1161 12.291-13.98 12.301-24.853 12.353 4.6871-8.8545 3.3342-15.019-1.0294-19.412l42.354-38.53z"/>
      <path id="path3023" style="color:#000000;fill:url(#linearGradient4214)" d="m445.03 585.88c-20.554 0.36405-34.264 7.7459-50.809 26.496-19.541 22.147-14.704 62.892-14.704 62.892 21.284 0.75284 48.883 33.484 57.069 48.83 0 0 8.373 2.3293 12.666 2.3293 4.2927 0 12.666-2.3293 12.666-2.3293 17.999-24.248 35.218-43.931 57.069-48.83 0 0 4.8375-40.745-14.704-62.892-17.647-20-32.087-27.015-55.031-26.496-1.4339 0.0324-2.8517-0.0242-4.2219 0z"/>
      <path id="path3015" style="color:#000000;fill:#000000" d="m449.27 718.91c-4.2982-0.005-8.7654 1.2782-12.131 3.2616-1.3451 0.79261-0.99482 1.6261 0 2.2494 7.1997 4.5113 5.6041 11.472 12.131 11.472 6.5273 0 4.9318-6.9607 12.131-11.472 0.99481-0.62326 1.2698-1.4568-0.0752-2.2494-3.366-1.9834-7.7815-3.2585-12.056-3.2616z"/>
      <path id="path3028" style="color:#000000;fill:#000000" d="m279.24 146.35a3.283 4.5141 0 1 1 -6.566 0 3.283 4.5141 0 1 1 6.566 0z" transform="matrix(2.0173 -1.1647 1.1647 2.0173 -307.61 692.71)"/>
      <path id="path3030" style="color:#000000;fill:#ffffff" d="m276.21 146.89a1.1996 1.1996 0 1 1 -2.3991 0 1.1996 1.1996 0 1 1 2.3991 0z" transform="matrix(2.3293 0 0 2.3293 -223.13 326.96)"/>
      <path id="path3032" style="color:#000000;fill:#ffffff" d="m276.21 146.89a1.1996 1.1996 0 1 1 -2.3991 0 1.1996 1.1996 0 1 1 2.3991 0z" transform="matrix(2.3293 0 0 1.4712 -224.75 446.4)"/>
      <path id="path3034" style="color:#000000;fill:#000000" d="m279.24 146.35a3.283 4.5141 0 1 1 -6.566 0 3.283 4.5141 0 1 1 6.566 0z" transform="matrix(-2.0173 -1.1647 -1.1647 2.0173 1205.8 692.71)"/>
      <path id="path3036" style="color:#000000;fill:#ffffff" d="m276.21 146.89a1.1996 1.1996 0 1 1 -2.3991 0 1.1996 1.1996 0 1 1 2.3991 0z" transform="matrix(2.3293 0 0 2.3293 -164.9 326.96)"/>
      <path id="path3038" style="color:#000000;fill:#ffffff" d="m276.21 146.89a1.1996 1.1996 0 1 1 -2.3991 0 1.1996 1.1996 0 1 1 2.3991 0z" transform="matrix(2.3293 0 0 1.4712 -164.16 446.4)"/>
      <path id="path3114" style="color:#000000;fill:#ab2202" d="m395.71 320c17.86 36.784 32.598 58.517 63.214 56.786 27.721-1.5672 45.452-4.7037 72.143 0.71428l0.71429 16.429-13.571-6.7857-13.571-4.6429-21.786-0.71429-26.071 2.1429-13.929-0.35714-17.5-8.5714-16.786-19.286-12.143-30z" transform="translate(0 422.36)"/>
      <path id="path3921" style="color:#000000;fill:#ab2202" d="m504.07 317.36s4.1932-11.477 11.112-19.193c24.39-27.201 42.172-21.368 41.067-32.552-0.56463-5.7125-1.0968-35.326-31.887-73.159 22.09 17.883 34.152 42.475 39.813 68.335l3.0304 17.173-18.688 3.5355-20.203 10.607z" transform="translate(0 422.36)"/>
      <path id="path3958" style="color:#000000;fill:#000000" d="m494.82 735.87s0.45031 0.17198 1.3366 0.58167c0.88626 0.4097 2.2089 1.0601 3.9027 2.0978s3.7583 2.4696 6.0763 4.4496c2.3179 1.98 4.8874 4.5194 7.5546 7.6432 1.9952 2.3235 4.1025 4.9892 6.1288 8.0955 2.0262 3.1064 3.9758 6.6533 5.49 10.769 1.3557 3.7093 2.3784 7.7653 3.3641 12.024 1.004 4.3242 1.9423 8.9351 2.7957 13.832 0.0795 0.45636 0.15806 0.91286 0.23562 1.3695 0.7518 4.42 1.4423 8.881 1.8574 13.398 0.13641 1.4586 0.25512 2.9729 0.22198 4.5386-0.005 0.4693-0.0362 1.0098-0.14913 1.6091 0.00001 0.00001 0.00001 0.00003 0.00001 0.00004 0.0911 0.23943-0.16023 0.83447-0.89747 1.6348-0.00004 0.00004-0.00007 0.00008-0.00011 0.00012-1.1021 0.60268-1.9907 0.65996-2.4784 0.41339-0.00002 0-0.00004-0.00001-0.00005-0.00001-0.84562-0.19844-1.5532-0.50903-2.1446-0.815-1.8002-0.8978-3.4239-1.97-4.9834-2.9964-0.00001-0.00001-0.00002-0.00001-0.00003-0.00002-1.8282-1.1978-3.612-2.408-5.4164-3.5284-1.5396-0.94424-2.9932-1.8512-4.4874-2.3756-0.00001 0-0.00002-0.00001-0.00004-0.00001-5.0028-1.8239-10.535-2.2574-16.107-2.53-9.1093-0.41833-18.275 0.23472-27.368 1.4672-8.632 1.1925-17.615 1.851-26.395-0.005-0.00001 0-0.00002-0.00001-0.00003-0.00001-6.9889-1.5176-13.379-4.9033-18.984-9.1162-6.3091-4.7386-11.425-10.864-15.455-17.539-4.9871-8.2574-8.5612-17.215-11.646-26.212-2.7424-7.9443-5.9674-15.719-10.727-22.417-3.5935-5.0972-8.2362-9.4666-13.161-13.54-7.2808-6.0245-16.343-9.7941-25.73-11.47-3.1049-0.55391-6.3035-0.86931-9.5495-1.2507-1.0297-0.11637-2.1408-0.24764-3.3026-0.52705-0.60707-0.0168-1.5927-0.39339-2.6106-1.4442-0.74949-1.2943-0.83157-2.3102-0.7125-2.7855v-0.00004c-0.042-1.283 0.0427-2.5137 0.15227-3.6859 0.33805-3.7031 0.96595-7.3395 1.6757-10.919 1.8734-9.4867 4.4244-18.89 8.0288-27.925 0-0.00001 0-0.00001 0.00001-0.00002 3.8146-9.5688 8.5496-18.868 14.78-27.2 9.3981-12.526 21.198-22.935 33.417-32.438 10.427-8.1259 22.632-14.051 35.624-16.763h0.00003c4.6977-0.97726 9.4654-1.5458 14.236-1.779h0.00002c3.4637-0.16833 6.8883-0.13468 10.266-0.13629 3.2136-0.003 6.473-0.0351 9.7713 0.12293 4.7897 0.23104 9.574 0.79828 14.291 1.7594 0.00001 0.00001 0.00002 0.00001 0.00004 0.00001 13.13 2.6821 25.548 8.5191 36.116 16.729 12.235 9.4881 24.056 19.887 33.483 32.417 6.2512 8.3385 11.006 17.644 14.837 27.219 0 0.00001 0 0.00002 0.00001 0.00003 3.4979 8.7241 6.4517 17.691 8.6438 26.862 0.80799 3.3598 1.5492 6.8208 1.8667 10.405 0.10875 1.1427 0.16705 2.3926 0.0198 3.7254 0.0685 0.70602-0.26462 1.8467-1.3437 3.076-0.00002 0.00001-0.00004 0.00003-0.00006 0.00004-1.0738 0.81396-2.0464 1.1186-2.7029 1.173-1.1385 0.23083-2.2185 0.34078-3.2181 0.44344h-0.00003c-3.088 0.32933-6.1205 0.66582-9.0448 1.2723-9.6651 1.9775-18.697 6.807-26.209 13.326-3.6328 3.1533-6.8801 6.7741-9.8124 10.655-3.4598 4.5791-6.6108 9.4596-9.8857 14.328l-3.5162-2.3675c3.2505-4.8228 6.4532-9.7622 10.039-14.503 3.0788-4.0704 6.5306-7.9 10.425-11.281 7.9983-6.9438 17.67-12.072 28.123-14.227 3.1756-0.64631 6.3418-0.99923 9.4469-1.3219 1.02-0.10995 1.9659-0.19768 2.8164-0.37688 0.58411-0.20143 0.91991-0.18578 0.79326-0.21282-0.11572 0.37382-0.2346 0.10031-0.0139-0.47297 0.11346-0.85785 0.0521-1.8268-0.029-2.882-0.27208-3.2408-0.97641-6.5029-1.7561-9.8069-2.1251-8.9498-5.0064-17.73-8.4265-26.301-3.7368-9.3456-8.3054-18.348-14.281-26.312-9.0549-12.114-20.614-22.278-32.694-31.702-10.089-7.8569-21.955-13.461-34.463-16.025-4.5016-0.92515-9.0878-1.4739-13.696-1.7037-3.146-0.15794-6.342-0.12851-9.5804-0.13136-3.4055-0.002-6.7674-0.0414-10.079 0.118-4.5915 0.2197-9.1604 0.75657-13.64 1.6841 0 0.00001-0.00001 0.00001-0.00002 0.00001-12.367 2.5504-24.057 8.2163-34.073 15.991-12.096 9.4093-23.676 19.563-32.76 31.681-5.9962 7.9694-10.585 16.979-14.338 26.33 0 0.00001 0 0.00002-0.00001 0.00003-3.5151 8.764-6.0147 17.948-7.8734 27.264 0 0.00001 0 0.00002-0.00001 0.00003-0.69975 3.5222-1.3142 7.0316-1.6356 10.539-0.10059 1.1261-0.18248 2.2038-0.14403 3.2274v0.00003c0.16097 0.72638-0.004 1.0515-0.0266 0.71524 0 0-0.00001 0-0.00001-0.00001-0.29024-0.0912 0.0195-0.15789 0.58188 0.11306 0.85879 0.21781 1.8223 0.32377 2.8592 0.45098 3.2028 0.37869 6.4719 0.70895 9.7595 1.2951 9.9216 1.7675 19.531 5.8066 27.373 12.273 5.0543 4.1694 9.9048 8.7759 13.782 14.248 5.0298 7.151 8.3958 15.227 11.154 23.326 3.0483 8.8899 6.5051 17.627 11.296 25.554 3.8513 6.3691 8.6632 12.174 14.546 16.58 5.3263 3.9851 11.266 7.1761 17.635 8.5312 8.1246 1.7791 16.72 1.1177 25.223-0.005 9.2382-1.2448 18.607-1.8941 27.976-1.4565 5.6545 0.24739 11.513 0.75377 17.081 2.7467l0.00001 0.00001c1.9133 0.70598 3.5741 1.7162 5.1105 2.686 1.8773 1.1706 3.6819 2.3975 5.479 3.579 0.00001 0.00001 0.00001 0.00001 0.00002 0.00001 1.5728 1.0293 3.0804 2.0378 4.6361 2.806 0.54034 0.25589 0.99372 0.47801 1.3824 0.54969 0.26907-0.081 0.25281 0.0649-0.23529 0.19527-0.00002 0.00003-0.00004 0.00005-0.00005 0.00008-0.35394 0.50545-0.50938 0.5653-0.3234 0.33046 0 0 0-0.00001 0.00001-0.00001 0.0613-0.27145 0.0719-0.62274 0.0879-1.0412 0.0359-1.3388-0.0766-2.7279-0.20348-4.1626-0.39462-4.3817-1.0684-8.7605-1.807-13.151-0.0762-0.45218-0.15333-0.90418-0.23145-1.356-0.83829-4.8485-1.7285-9.4131-2.6595-13.698-0.9276-4.2544-1.8271-8.1987-3.0236-11.753-1.3023-3.9004-3.0444-7.3384-4.873-10.407-1.8287-3.0682-3.7481-5.7656-5.5676-8.156-2.4458-3.1944-4.7733-5.8392-6.8824-7.9465s-3.997-3.688-5.5574-4.869-2.7913-1.9685-3.6183-2.4782c-0.82694-0.50966-1.2487-0.74375-1.2487-0.74375z"/>
      <path id="path4043" style="color:#000000;fill:#000000" d="m401.74 653.55c0.19336-0.47334 0.41954-0.94391 0.68187-1.4081 1.187-1.9168 2.7278-3.3272 4.2502-4.3925 2.738-1.8859 5.9284-2.4723 8.8336-2.1707 1.2509 0.10699 2.4776 0.3258 3.6692 0.64003 1.0961 0.28905 1.9628 0.91953 2.4402 1.6318 0.47735 0.71229 0.5727 1.4981 0.26616 2.1716-0.30653 0.67351-0.93874 1.115-1.6729 1.3424-0.73411 0.22732-1.5691 0.24313-2.4044 0.0195-0.90814-0.24309-1.8245-0.40877-2.7381-0.48061-2.0068-0.10423-4.0017 0.14658-5.2468 1.1638-1.2084 0.92494-2.2652 1.8026-2.7982 2.7944-0.13604 0.20943-0.25224 0.44026-0.35189 0.68889-0.25442 0.63473-0.66764 1.2421-1.2252 1.7283-0.55759 0.48619-1.248 0.83522-1.9863 0.786-0.73835-0.0492-1.396-0.50624-1.771-1.3154-0.37507-0.8092-0.43984-1.9909 0.0537-3.1992z"/>
      <path id="path4163" style="color:#000000;fill:#ab2302" d="m445.03 585.88c-19.663 0.34828-33.088 7.1637-48.698 24.167 24.666-13.41 30.812 18.702 52.92 20.163 22.108-1.4618 28.254-33.574 52.92-20.163-15.61-17.003-29.035-23.819-48.698-24.167-1.3702-0.0242-2.788 0.0324-4.2219 0-1.4339 0.0324-2.8517-0.0242-4.2219 0z"/>
      <path id="path3923" style="opacity:.6;color:#000000;fill:#ab2202" d="m398.84 185.03c-1.5216 1.5731-3.0609 3.1961-4.625 4.9688-19.541 22.147-14.688 62.906-14.688 62.906 3.0626 0.10833 6.2526 0.90203 9.5 2.1875-1.6513-3.0184-3.4083-7.9177-4.375-15.812-2.1428-17.5 2.8304-36.786 10.688-47.5 1.6199-2.2089 2.7343-4.4989 3.5-6.75z" transform="translate(0 422.36)"/>
      <path id="path3928" style="opacity:.6;color:#000000;fill:#ab2202" d="m499.66 607.39c1.5216 1.5731 3.0609 3.1961 4.625 4.9688 19.541 22.147 14.688 62.906 14.688 62.906-3.0626 0.10833-6.2526 0.90203-9.5 2.1875 1.6513-3.0184 3.4083-7.9177 4.375-15.812 2.1428-17.5-2.8304-36.786-10.688-47.5-1.6199-2.2089-2.7343-4.4989-3.5-6.75z"/>
      <path id="path3995" style="color:#000000;fill:#000000" d="m491.84 655.55c-0.0997-0.24863-0.21585-0.47946-0.35189-0.68889-0.53296-0.99175-1.5898-1.8694-2.7982-2.7944-1.2451-1.0172-3.24-1.268-5.2468-1.1638-0.91363 0.0718-1.83 0.23752-2.7381 0.48061-0.83538 0.22361-1.6703 0.2078-2.4044-0.0195-0.73412-0.22732-1.3663-0.66886-1.6729-1.3424-0.30653-0.67351-0.21118-1.4593 0.26616-2.1716 0.47735-0.71229 1.3441-1.3428 2.4402-1.6318 1.1916-0.31423 2.4183-0.53304 3.6692-0.64003 2.9052-0.30162 6.0956 0.28483 8.8336 2.1707 1.5223 1.0653 3.0631 2.4757 4.2502 4.3925 0.26233 0.46421 0.48851 0.93478 0.68187 1.4081 0.49359 1.2083 0.42882 2.39 0.0538 3.1992-0.37506 0.8092-1.0327 1.2662-1.771 1.3154-0.73835 0.0492-1.4287-0.29981-1.9863-0.786s-0.97082-1.0936-1.2252-1.7283z"/>
    </g>
  </g>
  <metadata>
    <rdf:RDF>
      <cc:Work>
        <dc:format>image/svg+xml</dc:format>
        <dc:type rdf:resource="http://purl.org/dc/dcmitype/StillImage"/>
        <cc:license rdf:resource="http://creativecommons.org/licenses/publicdomain/"/>
        <dc:publisher>
          <cc:Agent rdf:about="http://openclipart.org/">
            <dc:title>Openclipart</dc:title>
          </cc:Agent>
        </dc:publisher>
        <dc:title>Fox transparent</dc:title>
        <dc:date>2012-01-18T19:12:59</dc:date>
        <dc:description>Fox remix without background</dc:description>
        <dc:source>https://openclipart.org/detail/167223/fox-transparent-by-kuba</dc:source>
        <dc:creator>
          <cc:Agent>
            <dc:title>kuba</dc:title>
          </cc:Agent>
        </dc:creator>
        <dc:subject>
          <rdf:Bag>
            <rdf:li>animal</rdf:li>
            <rdf:li>cartoon</rdf:li>
            <rdf:li>color</rdf:li>
            <rdf:li>fox</rdf:li>
            <rdf:li>head</rdf:li>
            <rdf:li>orange</rdf:li>
            <rdf:li>transparent</rdf:li>
            <rdf:li>wild</rdf:li>
            <rdf:li>yellow</rdf:li>
          </rdf:Bag>
        </dc:subject>
      </cc:Work>
      <cc:License rdf:about="http://creativecommons.org/licenses/publicdomain/">
        <cc:permits rdf:resource="http://creativecommons.org/ns#Reproduction"/>
        <cc:permits rdf:resource="http://creativecommons.org/ns#Distribution"/>
        <cc:permits rdf:resource="http://creativecommons.org/ns#DerivativeWorks"/>
      </cc:License>
    </rdf:RDF>
  </metadata>
</svg>
